<?xml version="1.0" standalone="no"?>
<!DOCTYPE svg PUBLIC "-//W3C//DTD SVG 20010904//EN"
 "http://www.w3.org/TR/2001/REC-SVG-20010904/DTD/svg10.dtd">
<svg version="1.0" xmlns="http://www.w3.org/2000/svg"
 width="130.000000pt" height="158.000000pt" viewBox="0 0 600.000000 498.000000"
 preserveAspectRatio="xMidYMid meet">
<metadata>
Created by potrace 1.16, written by Peter Selinger 2001-2019
</metadata>
<g transform="translate(0.000000,498.000000) scale(0.100000,-0.100000)"
fill="#e5e5e5" stroke="none">
<path d="M1117 4910 c-334 -312 -449 -829 -306 -1380 l30 -116 -50 -106 c-99
-211 -171 -468 -202 -720 -7 -62 -10 -177 -6 -315 4 -200 13 -283 50 -466 1
-6 -38 -16 -93 -23 -151 -20 -416 -86 -482 -120 -61 -32 -76 -101 -33 -152 36
-43 66 -44 185 -7 164 51 455 105 482 89 3 -2 14 -28 24 -57 22 -66 97 -233
141 -314 l34 -62 -113 -57 c-125 -64 -260 -151 -328 -212 -39 -35 -45 -44 -45
-82 0 -35 6 -47 33 -71 50 -45 84 -40 173 27 89 67 232 153 324 194 37 17 69
29 70 28 32 -54 169 -213 264 -308 302 -300 663 -505 1069 -606 371 -92 767
-92 1136 1 527 133 1006 459 1320 898 26 37 52 67 57 67 6 0 54 -16 107 -36
157 -58 280 -127 466 -259 26 -19 59 -35 73 -35 76 0 126 82 90 147 -24 42
-226 182 -367 253 -53 27 -169 74 -252 103 -15 5 -11 19 31 104 27 54 64 140
82 190 l34 93 102 0 c180 0 441 -45 624 -109 66 -22 99 -18 134 16 35 36 35
100 0 135 -61 62 -471 152 -730 161 -53 1 -69 5 -67 16 39 182 46 265 47 506
0 264 -7 337 -51 525 -42 177 -80 288 -161 467 l-46 103 21 72 c131 451 80
900 -138 1231 -73 110 -217 257 -252 257 -37 0 -211 -42 -276 -67 -206 -77
-421 -228 -544 -380 l-25 -31 -83 29 c-247 88 -471 124 -765 124 -297 -1 -517
-36 -765 -124 l-85 -30 -29 37 c-116 146 -337 300 -540 376 -64 24 -238 66
-275 66 -10 0 -53 -32 -94 -70z m245 -166 c113 -36 237 -100 333 -172 79 -59
173 -148 164 -156 -2 -2 -31 -18 -64 -37 -107 -58 -283 -178 -373 -253 -113
-94 -302 -292 -372 -389 -30 -42 -58 -76 -62 -76 -17 -2 -33 157 -32 334 0
213 14 290 78 449 52 129 192 326 231 326 8 0 51 -12 97 -26z m3264 -53 c190
-227 270 -562 219 -920 -14 -97 -20 -121 -28 -110 -2 2 -32 42 -68 89 -176
234 -447 467 -716 618 -46 25 -83 49 -83 53 0 13 139 137 199 178 116 79 341
175 396 168 10 -1 47 -35 81 -76z m-1362 -260 c590 -105 1095 -439 1426 -942
123 -186 237 -454 291 -683 65 -279 66 -662 1 -935 l-17 -75 -114 -22 c-130
-26 -263 -65 -339 -101 -82 -38 -105 -104 -57 -161 38 -45 69 -48 156 -13 83
33 269 84 277 76 7 -7 -51 -142 -101 -233 -36 -67 -41 -73 -66 -68 -136 29
-396 34 -526 11 -67 -12 -84 -19 -107 -45 -31 -34 -35 -67 -13 -109 22 -44 62
-55 150 -42 83 12 308 14 368 3 l38 -7 -66 -82 c-309 -386 -757 -660 -1235
-757 -211 -42 -499 -54 -685 -28 -488 69 -901 270 -1235 601 -96 96 -200 215
-200 230 0 4 37 16 83 27 91 20 395 27 519 10 66 -9 67 -8 97 22 24 23 31 39
31 69 0 98 -63 118 -360 118 -198 -1 -225 -3 -345 -29 -71 -15 -136 -29 -143
-30 -25 -2 -196 343 -179 361 10 10 207 -18 306 -43 53 -13 130 -38 172 -55
54 -23 85 -30 104 -25 75 19 101 111 48 165 -71 70 -425 161 -630 161 l-71 0
-16 68 c-66 298 -67 617 0 927 41 196 152 468 264 650 334 545 895 907 1548
1000 145 21 472 14 626 -14z"/>
<path d="M2722 4139 c-134 -11 -321 -50 -449 -92 -204 -68 -254 -111 -261
-221 -7 -107 49 -183 154 -207 46 -11 56 -9 154 25 386 134 731 141 1082 20
158 -54 177 -58 228 -44 57 15 123 80 140 137 29 94 -17 190 -112 235 -145 69
-401 130 -622 148 -142 11 -165 11 -314 -1z"/>
<path d="M2690 3609 c-104 -13 -207 -39 -325 -80 -96 -33 -115 -44 -152 -84
-70 -76 -71 -183 -4 -258 66 -73 142 -85 258 -42 98 37 204 62 320 75 162 19
368 -10 531 -75 144 -57 267 -7 302 124 17 63 -2 132 -49 180 -59 62 -291 138
-491 161 -99 11 -297 11 -390 -1z"/>
<path d="M1876 2664 c-74 -23 -159 -113 -182 -189 -43 -149 20 -296 154 -362
47 -23 70 -28 132 -28 66 1 83 5 139 35 104 56 153 139 155 260 1 63 -3 84
-27 132 -30 62 -75 106 -140 140 -55 28 -163 34 -231 12z"/>
<path d="M3750 2671 c-135 -42 -215 -149 -215 -291 0 -91 24 -149 85 -210 60
-60 119 -83 210 -83 91 0 150 23 210 83 189 189 52 514 -214 509 -28 0 -62 -4
-76 -8z"/>
<path d="M2769 1915 c-79 -16 -135 -43 -178 -85 -50 -51 -53 -102 -11 -214 33
-86 130 -183 203 -201 23 -6 24 -10 20 -48 -12 -104 -55 -171 -134 -211 -43
-21 -67 -26 -128 -26 -160 1 -250 82 -270 241 -10 78 -27 105 -75 118 -71 18
-126 -31 -126 -113 0 -224 171 -415 398 -445 153 -20 289 21 398 121 l41 38
29 -31 c127 -132 365 -172 541 -89 76 35 169 121 206 188 31 58 57 158 57 225
0 65 -39 107 -99 107 -65 0 -90 -29 -102 -119 -23 -163 -110 -240 -270 -241
-149 0 -242 81 -263 230 l-6 45 47 19 c93 38 178 148 203 263 15 67 6 103 -38
145 -49 47 -83 63 -174 82 -91 19 -178 19 -269 1z"/>
</g>
</svg>
